<?xml version="1.0" standalone="no"?>
<!DOCTYPE svg PUBLIC "-//W3C//DTD SVG 20010904//EN"
 "http://www.w3.org/TR/2001/REC-SVG-20010904/DTD/svg10.dtd">
<svg version="1.0" xmlns="http://www.w3.org/2000/svg"
 width="940.000000pt" height="940.000000pt" viewBox="0 0 940.000000 940.000000"
 preserveAspectRatio="xMidYMid meet">
<metadata>
Created by potrace 1.15, written by Peter Selinger 2001-2017
</metadata>
<g transform="translate(0.000000,940.000000) scale(0.100000,-0.100000)"
fill="#000000" stroke="none">
<path d="M0 7559 l0 -1842 33 27 c17 14 56 42 86 62 30 21 136 98 237 173 287
214 399 287 699 453 580 322 785 442 1099 640 105 66 227 143 271 170 44 27
117 73 162 101 45 29 146 92 225 142 79 49 235 150 348 225 113 75 253 167
311 205 111 73 279 189 339 236 19 14 150 108 290 208 461 327 622 445 885
646 143 110 318 243 389 297 l129 98 -2752 0 -2751 0 0 -1841z"/>
<path d="M5714 9339 c-199 -154 -795 -604 -889 -672 -22 -15 -94 -67 -160
-114 -66 -48 -140 -101 -165 -119 -169 -123 -709 -502 -795 -559 -49 -32 -166
-109 -260 -170 -142 -94 -444 -286 -697 -444 -32 -20 -111 -69 -175 -110 -326
-204 -413 -258 -593 -363 -107 -63 -298 -172 -425 -242 -126 -71 -291 -162
-365 -203 -189 -106 -364 -227 -845 -586 l-70 -52 -137 0 -138 0 0 -482 c0
-266 2 -483 4 -483 12 0 199 110 244 143 30 21 93 64 142 95 48 32 166 109
261 173 199 133 328 211 734 441 584 332 684 387 890 493 602 309 852 450
1392 786 76 47 206 128 288 179 83 51 200 125 260 165 61 40 225 148 364 240
143 93 422 293 635 454 619 467 1050 776 1871 1343 44 30 113 74 153 98 39 23
72 44 72 46 0 2 -341 4 -759 4 l-758 0 -79 -61z"/>
<path d="M7535 9344 c-107 -67 -158 -100 -287 -191 -54 -37 -218 -151 -365
-252 -148 -102 -324 -226 -393 -276 -69 -51 -242 -177 -385 -280 -222 -161
-510 -376 -875 -654 -123 -94 -716 -484 -1070 -704 -753 -469 -857 -529 -1525
-877 -187 -97 -446 -237 -575 -310 -719 -406 -960 -548 -1143 -674 -65 -45
-170 -115 -232 -156 -63 -41 -138 -91 -167 -111 -71 -49 -373 -216 -423 -233
-22 -8 -52 -17 -67 -20 l-28 -6 0 -380 c0 -209 2 -380 4 -380 8 0 152 83 216
125 175 114 335 206 435 251 92 41 401 233 465 289 8 7 34 16 57 20 23 4 53
15 66 25 13 10 44 26 68 36 44 17 132 91 124 104 -3 4 8 10 23 13 16 3 53 23
83 43 29 21 87 59 127 86 l72 49 0 273 0 274 43 15 c23 8 105 38 182 65 259
93 399 142 402 142 1 0 4 -101 5 -224 l3 -224 125 55 c69 30 188 83 265 117
l140 61 3 208 c1 114 4 207 6 207 1 0 41 14 87 31 102 38 193 69 279 98 36 12
74 26 85 31 45 21 164 57 170 52 3 -3 5 -55 5 -116 l0 -110 28 45 c40 62 114
144 178 196 168 137 368 186 620 152 80 -10 80 -10 154 24 41 19 131 67 200
107 69 40 159 92 200 115 41 23 181 111 310 195 129 84 271 176 316 205 44 29
125 77 181 107 89 49 168 102 322 218 169 127 464 289 966 533 239 115 590
307 675 367 28 20 166 100 300 175 41 22 102 59 135 80 33 21 165 90 293 152
253 123 546 277 626 330 28 18 56 33 62 33 7 0 43 21 81 46 37 26 88 58 113
71 25 14 57 37 73 51 l27 26 0 168 0 168 -887 0 -888 0 -90 -56z"/>
<path d="M9323 8821 c-32 -21 -120 -70 -194 -110 -74 -39 -145 -78 -159 -86
-14 -8 -131 -66 -261 -128 -129 -63 -268 -135 -307 -160 -40 -26 -91 -56 -114
-68 -47 -24 -71 -38 -333 -195 -226 -136 -380 -220 -615 -335 -375 -183 -536
-264 -573 -287 -21 -13 -82 -47 -135 -76 -96 -52 -220 -132 -317 -204 -27 -20
-86 -63 -130 -95 -44 -33 -110 -74 -147 -93 -38 -19 -68 -36 -68 -38 0 -2 42
12 93 31 77 29 175 62 185 63 1 0 2 -263 2 -585 0 -322 3 -585 6 -585 16 0 55
29 112 81 100 94 207 154 327 184 33 8 62 20 63 25 2 6 8 10 14 10 6 0 104 46
217 102 181 90 326 173 496 286 28 18 142 79 255 136 113 56 268 139 345 183
432 248 532 296 874 420 69 25 197 75 284 111 l157 65 0 693 c0 382 -4 694 -8
694 -5 0 -36 -17 -69 -39z"/>
<path d="M9200 7265 c-309 -114 -382 -149 -799 -387 -95 -55 -259 -142 -363
-194 -181 -91 -253 -132 -433 -250 -45 -28 -179 -101 -298 -160 -119 -60 -216
-113 -214 -118 2 -5 32 -16 67 -26 118 -31 197 -77 291 -170 47 -47 100 -111
117 -143 47 -84 89 -206 102 -294 6 -43 15 -108 20 -145 6 -37 10 -133 10
-213 0 -136 1 -147 18 -140 9 4 114 40 233 81 120 41 250 88 290 104 130 54
190 77 389 151 226 83 375 146 550 234 69 34 142 68 162 74 20 7 41 18 47 25
8 9 10 253 9 828 l-3 815 -195 -72z"/>
<path d="M5400 6584 c-80 -52 -176 -112 -215 -133 -38 -21 -110 -63 -160 -92
-49 -29 -159 -87 -243 -129 l-154 -76 69 -59 c139 -120 210 -237 260 -425 20
-78 26 -127 30 -277 l5 -182 102 51 c55 29 182 88 281 133 l180 81 3 602 c1
331 -1 602 -5 601 -5 -1 -73 -43 -153 -95z"/>
<path d="M3900 5629 c-149 -29 -246 -116 -307 -274 l-27 -70 -4 -369 c-2 -214
0 -367 6 -365 8 4 233 106 571 259 l166 76 0 234 0 235 -29 73 c-48 118 -120
179 -241 201 -66 12 -72 12 -135 0z"/>
<path d="M6588 5549 c-107 -15 -204 -82 -263 -179 -62 -103 -75 -192 -75 -535
1 -221 4 -294 14 -307 11 -16 17 -16 68 -3 72 19 169 56 237 90 30 15 138 55
240 90 l186 62 0 244 c0 207 -3 253 -18 304 -42 138 -127 216 -252 235 -38 5
-72 9 -75 9 -3 -1 -31 -5 -62 -10z"/>
<path d="M9375 5542 c-35 -30 -323 -147 -605 -246 -52 -19 -128 -48 -168 -65
-99 -43 -197 -79 -462 -171 -124 -43 -268 -95 -320 -115 -52 -20 -101 -38
-107 -40 -10 -3 -13 -112 -13 -497 0 -271 -4 -499 -8 -506 -7 -9 -83 -12 -348
-10 l-339 3 -3 340 c-2 288 -5 341 -17 348 -8 4 -15 22 -15 38 0 36 -5 35
-124 -22 -44 -21 -125 -52 -180 -69 -197 -62 -312 -100 -361 -119 l-50 -19 -3
-251 -2 -251 -343 2 -342 3 -3 113 c-3 128 -2 127 -83 86 -28 -14 -141 -59
-252 -101 -111 -41 -210 -79 -219 -84 -17 -9 -18 -47 -18 -569 0 -632 -8 -575
81 -545 61 20 334 69 798 141 309 48 626 126 768 190 48 21 319 120 428 156
43 14 279 77 352 93 102 24 195 56 249 86 28 16 69 35 90 43 22 8 107 44 189
81 261 115 743 276 975 325 58 13 128 31 155 40 28 9 112 34 188 56 l137 38 0
753 c0 414 -4 753 -8 753 -4 0 -12 -4 -17 -8z"/>
<path d="M5407 5261 c-72 -38 -196 -101 -274 -141 l-143 -72 0 -510 0 -510 28
7 c15 3 74 27 132 52 58 26 173 70 255 98 l150 52 3 547 c1 370 -1 546 -8 546
-6 0 -70 -31 -143 -69z"/>
<path d="M2810 5256 c-41 -18 -111 -50 -155 -71 -44 -20 -120 -55 -170 -77
-49 -22 -96 -44 -102 -50 -10 -8 -13 -118 -13 -489 0 -264 3 -479 8 -479 13 1
513 188 520 195 4 4 8 231 10 506 3 408 1 499 -10 499 -7 0 -47 -15 -88 -34z"/>
<path d="M4170 4681 c-205 -95 -522 -237 -565 -254 l-40 -15 -3 -496 -2 -496
67 34 c121 60 294 137 488 217 l190 77 3 496 c1 273 -1 496 -5 495 -5 0 -64
-27 -133 -58z"/>
<path d="M1687 4633 c-20 -21 -58 -47 -84 -57 -27 -10 -57 -27 -68 -36 -11
-10 -41 -22 -66 -28 -30 -8 -112 -55 -240 -140 -124 -82 -230 -144 -294 -172
-97 -42 -126 -58 -305 -170 -47 -29 -130 -80 -185 -113 -55 -33 -122 -75 -150
-92 -118 -75 -168 -98 -232 -103 l-63 -5 0 -374 0 -374 68 37 c37 21 105 62
152 92 102 66 254 144 490 251 96 43 324 148 505 233 182 85 362 166 400 180
117 44 149 59 137 67 -8 5 -12 122 -12 424 -1 229 -4 417 -9 417 -4 0 -23 -17
-44 -37z"/>
<path d="M2783 4120 c-56 -21 -170 -70 -255 -108 l-153 -70 -3 -181 c-1 -99
-6 -181 -11 -181 -8 0 -59 21 -136 55 -16 7 -77 32 -135 55 -58 24 -117 49
-132 56 -24 12 -34 10 -110 -20 -46 -19 -200 -89 -343 -156 -143 -67 -348
-162 -455 -212 -326 -149 -400 -186 -535 -269 -318 -196 -423 -254 -478 -264
l-37 -7 0 -293 0 -293 43 10 c23 5 96 23 162 38 66 16 190 46 275 66 85 20
191 50 235 66 44 16 197 65 340 108 143 43 352 108 465 145 187 61 246 83 440
164 36 15 148 56 250 91 102 34 257 94 345 132 88 38 203 82 255 97 169 50
346 121 301 121 -6 0 -32 9 -56 20 -24 11 -65 28 -92 38 l-48 18 -3 407 c-2
316 -5 407 -15 406 -6 -1 -58 -18 -114 -39z"/>
<path d="M9334 3934 c-23 -8 -113 -32 -200 -53 -173 -42 -407 -113 -604 -183
-148 -53 -530 -213 -580 -243 -49 -30 -138 -61 -266 -94 -264 -68 -350 -94
-524 -154 -102 -36 -214 -77 -250 -92 -88 -37 -294 -99 -465 -140 -129 -31
-269 -55 -610 -106 -200 -29 -475 -83 -630 -122 -77 -20 -157 -39 -177 -42
l-38 -6 0 -99 c0 -55 -3 -100 -7 -100 -9 0 -107 36 -138 50 -103 47 -161 70
-180 70 -13 0 -94 -16 -182 -36 -87 -19 -244 -53 -350 -75 -105 -22 -258 -60
-340 -85 -81 -25 -200 -59 -263 -75 -63 -17 -155 -46 -204 -65 -49 -19 -142
-48 -205 -64 -64 -16 -159 -45 -211 -64 -52 -19 -198 -59 -325 -90 -126 -30
-306 -78 -400 -106 -93 -28 -244 -70 -335 -94 -342 -91 -517 -146 -654 -206
-61 -26 -131 -53 -156 -60 -145 -37 -384 -148 -690 -320 -185 -104 -221 -119
-288 -126 l-62 -7 0 -573 0 -574 4700 0 4700 0 0 475 0 475 -22 -5 c-73 -16
-300 -37 -553 -51 -159 -8 -357 -24 -440 -35 -186 -24 -570 -56 -770 -64 -196
-8 -535 -45 -810 -89 -121 -19 -330 -44 -464 -56 -134 -11 -305 -32 -380 -46
-374 -70 -476 -82 -1139 -129 -191 -14 -417 -32 -502 -40 -85 -9 -263 -20
-395 -25 -239 -9 -399 -27 -695 -75 -313 -52 -322 -54 -460 -111 -174 -72
-243 -96 -420 -146 -138 -38 -154 -41 -318 -45 -156 -5 -291 2 -279 13 2 3 51
9 108 14 166 14 338 64 599 170 171 70 245 91 390 110 47 6 132 20 190 30 196
37 485 69 670 75 102 4 311 17 465 30 154 14 354 29 445 35 391 26 774 62 905
86 316 58 420 73 615 88 113 10 322 35 465 57 318 49 657 85 870 94 203 8 452
29 720 60 116 14 337 32 493 40 156 9 345 24 420 35 75 10 172 21 215 25 l77
7 0 1474 c0 1173 -3 1474 -12 1473 -7 0 -32 -7 -54 -15z"/>
<path d="M4185 3569 c-60 -28 -175 -81 -255 -119 -80 -38 -195 -86 -257 -107
l-112 -38 -3 -112 -3 -113 -25 13 c-14 8 -39 18 -55 24 -17 6 -67 27 -112 46
l-82 35 -163 -53 c-90 -29 -199 -69 -243 -90 -101 -47 -246 -102 -450 -172
-88 -30 -212 -77 -275 -105 -63 -28 -169 -68 -235 -89 -66 -21 -154 -49 -195
-64 -41 -14 -201 -64 -355 -110 -154 -47 -325 -101 -379 -120 -55 -20 -167
-51 -250 -71 -83 -19 -176 -41 -206 -49 -30 -8 -124 -30 -209 -50 -84 -19
-160 -40 -167 -46 -8 -7 -46 -14 -84 -17 l-70 -5 0 -448 c0 -247 3 -449 7
-449 3 0 54 25 112 57 332 177 508 259 621 288 36 9 117 38 180 65 161 68 317
117 730 229 102 28 246 69 320 91 74 22 200 56 280 76 80 19 190 46 245 59 55
13 129 36 165 50 36 14 115 39 175 55 61 16 178 52 260 79 83 28 195 62 250
77 55 15 147 42 205 61 58 18 170 47 250 64 80 17 195 41 255 54 158 34 479
107 483 110 1 1 -23 13 -55 25 -32 13 -81 34 -109 46 -50 23 -51 24 -57 76 -4
29 -7 221 -7 426 0 204 -3 372 -7 372 -5 0 -57 -23 -118 -51z"/>
</g>
</svg>
